<svg xmlns="http://www.w3.org/2000/svg" id="_레이어_1" data-name="레이어 1" viewBox="0 0 149.64 106.35"><defs id="defs1"><style id="style1">.cls-11{stroke-linecap:round;fill:none;stroke-width:6.5px;stroke:#6bb82d;stroke-miterlimit:10}</style></defs><g id="text2" aria-label="St" style="font-size:48px;font-family:BMJUA,&quot;BM JUA_TTF&quot;;fill:#2ea7e0" transform="translate(0 82.92)"><path id="path19" d="M26.784-9.84q.24.672.336 1.536.144.816.144 1.68t-.144 1.728q-.096.816-.288 1.44-.768 2.688-3.072 4.464-2.304 1.824-5.28 2.64-2.928.816-6.096.576-3.12-.24-5.568-1.584Q5.28 1.776 4.176.528T2.304-2.256q-.288-.528-.384-1.2-.048-.72.144-1.344.192-.672.624-1.152.432-.528 1.2-.72.48-.096 1.056-.096.624 0 1.2.192.576.144 1.056.528.48.336.768.96.528 1.008 1.488 1.872 1.008.816 2.112 1.344 1.584.528 3.168.432 1.632-.096 2.928-.72 1.344-.624 2.16-1.68.816-1.104.816-2.496 0-1.152-.336-1.872-.336-.768-.96-1.248-.576-.528-1.44-.864-.816-.336-1.824-.576-1.152-.24-2.352-.336-1.152-.096-2.352-.24t-2.352-.384-2.256-.72q-2.208-.912-3.36-2.784t-1.392-4.032q-.192-2.16.528-4.272.72-2.16 2.304-3.696 1.536-1.392 3.648-1.968 2.16-.624 4.752-.72 1.44-.048 2.88.096 1.488.144 2.832.48 1.392.336 2.544.864 1.2.528 2.064 1.248.624.48 1.248 1.296.624.768.96 1.68.336.864.192 1.68-.096.816-1.008 1.392-.768.48-1.488.432-.672-.096-1.296-.432-.624-.384-1.2-.864t-1.056-.864q-1.296-.96-3.216-1.296t-3.6-.144q-1.056.144-1.968.48t-1.584.912q-.624.576-1.008 1.44-.336.816-.24 1.872.048.768.432 1.296.432.528 1.008.864.624.336 1.344.528t1.44.288q2.16.288 4.32.432t4.224.96q2.112.816 3.6 2.208t2.112 3.36" style="letter-spacing:-.05em"/><path id="path20" d="M49.006-17.04q.384.912.048 2.016-.288 1.104-1.104 1.44-.432.192-1.152.336-.72.096-1.584.192-.816.096-1.632.144t-1.392.048q.048 1.44.096 2.976l.096 2.928q.048 1.44.048 2.784 0 1.296-.048 2.352v1.68q0 .912-.144 1.776-.096.864-.336 1.488-.24.672-.72.864-1.488.624-2.736.336-1.2-.24-1.728-1.008-.384-.624-.576-1.488-.192-.816-.288-1.728-.048-.864-.048-1.68.048-.864.048-1.488.048-2.016.048-4.56.048-2.592.048-5.184h-2.208q-.864-.048-1.776-.144-.864-.144-1.632-.336-.768-.24-1.104-.672-.528-.624-.672-1.344-.096-.72.096-1.344.24-.672.72-1.152.48-.528 1.104-.672.864-.24 2.448-.24 1.584-.048 2.976 0-.048-.48-.048-.912 0-.48-.048-.912-.048-.576-.048-1.44 0-.912.096-1.776.144-.912.432-1.68.288-.816.816-1.248.72-.576 1.44-.624.768-.096 1.392.192.672.288 1.104.864.48.528.672 1.2.144.576.24 1.392.096.768.096 1.632.048.864.048 1.728v1.584h.48q.72 0 1.68-.048t1.872.048q.96.096 1.728.48.768.336 1.152 1.2" style="letter-spacing:0"/></g><path id="path2" d="M71.63 32.28c-.63-.3-4.21-1.94-8.16-.47-3.66 1.37-6.45 4.96-6.28 9.01.23 5.5 5.77 8.04 6.34 8.29 3.46 1.52 6.71.79 7.73.52" class="cls-11"/><path id="text4" d="M10.14-21.96q1.98-.96 4.14-1.38t4.26-.18q2.16.24 4.14 1.14 2.04.9 3.72 2.52 1.38 1.38 2.4 3.36 1.02 1.92 1.5 3.78 1.02 3.3.3 6.66T28.14.18q-.84 1.32-2.1 2.34-1.2 1.08-2.58 1.74-1.8.84-3.9 1.14-2.1.36-4.08.18-3.6-.18-6.36-1.8-2.7-1.62-4.38-4.14-1.62-2.52-2.16-5.7-.48-3.24.42-6.6.96-3.6 2.76-5.82 1.86-2.28 4.38-3.48m1.8 8.04q-.9.84-1.38 2.1t-.6 2.64q-.12 1.32.18 2.7.36 1.32 1.08 2.4.6.9 2.16 1.5t3.24.72q1.92.12 3.36-1.02 1.44-1.2 2.16-2.94.78-1.74.72-3.78t-1.08-3.72q-.72-1.2-2.04-1.74-1.26-.6-2.7-.6-1.38-.06-2.76.42-1.38.42-2.34 1.32m56.28 5.1q.12 1.92.12 3.66 0 1.68-.12 3.6V.06q0 .9-.12 1.74t-.42 1.56-.9 1.14q-.72.48-1.62.6-.9.18-1.68-.06t-1.38-.9q-.54-.66-.6-1.86-.18-2.76-.18-5.52 0-1.38-.06-2.64 0-1.26.06-3.54 0-1.14-.18-2.58-.18-1.5-.9-2.1-.54-.48-1.2-.54-.66-.12-1.32.12-.6.24-1.08.9-.48.6-.66 1.56 0 .78-.06 1.62 0 .78.06 1.5.06 1.92.06 3.66 0 1.68-.06 3.6-.06.78-.06 1.68.06.9 0 1.74-.06.9-.36 1.62-.24.72-.9 1.14-.72.48-1.56.54-.78.12-1.5-.24-.66-.3-1.2-1.02-.48-.72-.54-1.92-.12-1.38-.18-2.52v-2.52q0-1.38.06-2.82.06-1.5-.06-2.88 0-.42-.06-.96 0-.6-.06-1.2 0-.6-.12-1.14-.06-.6-.24-.96-.48-.84-1.74-1.08-1.2-.24-2.04.18t-1.26 1.08-.6 1.44-.18 1.68v8.4q.06 2.82-.6 4.56-.3.9-1.26 1.38-.9.48-1.98.48-1.02 0-1.92-.48T36.42 3q-.18-.66-.36-1.92-.12-1.2-.18-2.7t-.06-3v-11.46q-.06-1.38-.06-3t.48-2.94q.42-1.14 1.32-1.44.9-.36 1.86-.3 1.08 0 1.68.6.66.54.96 1.38.3.78.36 1.8.06.96.12 1.86.66-1.5 1.56-2.46.96-1.02 2.7-1.32 4.44-.84 7.08 2.28 1.2-1.2 3.06-1.98 1.44-.54 2.94-.48 1.5 0 2.82.54 1.38.54 2.46 1.56 1.14 1.02 1.8 2.46.9 1.92 1.02 4.26t.24 4.44" aria-label="om" style="font-size:60px;font-family:BMJUA,&quot;BM JUA_TTF&quot;;fill:#68af31" transform="translate(81.36 48)"/><path id="line4" d="M73.81 49.45V15.89" class="cls-11" style="fill:none;stroke:#6bb82d;stroke-width:6.5px;stroke-linecap:round;stroke-miterlimit:10"/><path id="path4" d="M73.81 81.39c0 11.99-7.79 21.71-17.4 21.71s-17.4-9.72-17.4-21.71" style="stroke-linecap:round;fill:none;stroke-width:6.5px;stroke:#3ba9e1;stroke-linejoin:round"/><path id="line5" d="M73.81 82.85V53.09" style="fill:none;stroke:#3ba9e1;stroke-width:6.5px;stroke-linejoin:round"/><path id="path5" d="M70.55 53.07c.65-.11 1.38-.28 2.17-.58 2.1-.79 3.53-2.04 4.36-2.92l-.04 4.44h-6.49z" style="fill:#2ea7e0;stroke-width:0"/></svg>